{
  "accessors": [
    {
      "bufferView": 1,
      "componentType": 5126,
      "count": 65532,
      "max": [
        35.161502838134766,
        43.88589096069336,
        102.9800033569336
      ],
      "min": [
        -41.0275993347168,
        -33.99391555786133,
        -0.6975626945495605
      ],
      "type": "VEC3"
    },
    {
      "bufferView": 1,
      "byteOffset": 786384,
      "componentType": 5126,
      "count": 65532,
      "max": [
        0.9999918937683105,
        0.9993845224380493,
        0.9999544024467468
      ],
      "min": [
        -0.9999368786811829,
        -0.9998502135276794,
        -0.9999507069587708
      ],
      "type": "VEC3"
    },
    {
      "bufferView": 0,
      "componentType": 5125,
      "count": 383640,
      "type": "SCALAR"
    },
    {
      "bufferView": 1,
      "byteOffset": 1572768,
      "componentType": 5126,
      "count": 65532,
      "max": [
        47.95580291748047,
        17.55409049987793,
        100.30799865722656
      ],
      "min": [
        -41.51060104370117,
        -33.94300842285156,
        37.11229705810547
      ],
      "type": "VEC3"
    },
    {
      "bufferView": 1,
      "byteOffset": 2359152,
      "componentType": 5126,
      "count": 65532,
      "max": [
        0.9999975562095642,
        0.9999750256538391,
        0.9999983906745911
      ],
      "min": [
        -0.9998895525932312,
        -0.9992415308952332,
        -0.9999253153800964
      ],
      "type": "VEC3"
    },
    {
      "bufferView": 0,
      "byteOffset": 1534560,
      "componentType": 5125,
      "count": 373617,
      "type": "SCALAR"
    },
    {
      "bufferView": 1,
      "byteOffset": 3145536,
      "componentType": 5126,
      "count": 65532,
      "max": [
        33.143096923828125,
        43.852088928222656,
        84.37419891357422
      ],
      "min": [
        -31.370098114013672,
        -26.232412338256836,
        30.828800201416016
      ],
      "type": "VEC3"
    },
    {
      "bufferView": 1,
      "byteOffset": 3931920,
      "componentType": 5126,
      "count": 65532,
      "max": [
        0.9999969005584717,
        0.9999857544898987,
        0.9999943971633911
      ],
      "min": [
        -0.9999920129776001,
        -0.9996361136436462,
        -0.9999803304672241
      ],
      "type": "VEC3"
    },
    {
      "bufferView": 0,
      "byteOffset": 3029028,
      "componentType": 5125,
      "count": 371280,
      "type": "SCALAR"
    },
    {
      "bufferView": 1,
      "byteOffset": 4718304,
      "componentType": 5126,
      "count": 65532,
      "max": [
        36.13460159301758,
        42.17149353027344,
        92.04529571533203
      ],
      "min": [
        -31.016298294067383,
        -26.545610427856445,
        -13.710999488830566
      ],
      "type": "VEC3"
    },
    {
      "bufferView": 1,
      "byteOffset": 5504688,
      "componentType": 5126,
      "count": 65532,
      "max": [
        0.999988317489624,
        0.9996823072433472,
        0.999998927116394
      ],
      "min": [
        -0.9999549984931946,
        -0.9997879862785339,
        -0.9999962449073792
      ],
      "type": "VEC3"
    },
    {
      "bufferView": 0,
      "byteOffset": 4514148,
      "componentType": 5125,
      "count": 342444,
      "type": "SCALAR"
    },
    {
      "bufferView": 1,
      "byteOffset": 6291072,
      "componentType": 5126,
      "count": 1457,
      "max": [
        36.69100570678711,
        40.24918746948242,
        76.70938873291016
      ],
      "min": [
        -31.795700073242188,
        -19.270910263061523,
        8.053640365600586
      ],
      "type": "VEC3"
    },
    {
      "bufferView": 1,
      "byteOffset": 6308556,
      "componentType": 5126,
      "count": 1457,
      "max": [
        0.9999664425849915,
        0.9927091598510742,
        0.9992569088935852
      ],
      "min": [
        -0.9984004497528076,
        -0.9994743466377258,
        -0.999053418636322
      ],
      "type": "VEC3"
    },
    {
      "bufferView": 0,
      "byteOffset": 5883924,
      "componentType": 5125,
      "count": 3999,
      "type": "SCALAR"
    }
  ],
  "asset": {
    "extras": {
      "author": "hirnlaich (https://sketchfab.com/hirnlaich)",
      "license": "CC-BY-4.0 (http://creativecommons.org/licenses/by/4.0/)",
      "source": "https://sketchfab.com/3d-models/zbrush-leafless-tree-09c2c4f4124a4603b37d92a330c89292",
      "title": "ZBrush leafless tree"
    },
    "generator": "Sketchfab-12.65.0",
    "version": "2.0"
  },
  "bufferViews": [
    {
      "buffer": 0,
      "byteLength": 5899920,
      "name": "floatBufferViews",
      "target": 34963
    },
    {
      "buffer": 0,
      "byteLength": 6326040,
      "byteOffset": 5899920,
      "byteStride": 12,
      "name": "floatBufferViews",
      "target": 34962
    }
  ],
  "buffers": [
    {
      "byteLength": 12225960,
      "uri": "scene.bin"
    }
  ],
  "materials": [
    {
      "doubleSided": true,
      "name": "material_0",
      "pbrMetallicRoughness": {
        "metallicFactor": 0.0,
        "roughnessFactor": 0.2
      }
    }
  ],
  "meshes": [
    {
      "name": "Object_0",
      "primitives": [
        {
          "attributes": {
            "NORMAL": 1,
            "POSITION": 0
          },
          "indices": 2,
          "material": 0,
          "mode": 4
        }
      ]
    },
    {
      "name": "Object_1",
      "primitives": [
        {
          "attributes": {
            "NORMAL": 4,
            "POSITION": 3
          },
          "indices": 5,
          "material": 0,
          "mode": 4
        }
      ]
    },
    {
      "name": "Object_2",
      "primitives": [
        {
          "attributes": {
            "NORMAL": 7,
            "POSITION": 6
          },
          "indices": 8,
          "material": 0,
          "mode": 4
        }
      ]
    },
    {
      "name": "Object_3",
      "primitives": [
        {
          "attributes": {
            "NORMAL": 10,
            "POSITION": 9
          },
          "indices": 11,
          "material": 0,
          "mode": 4
        }
      ]
    },
    {
      "name": "Object_4",
      "primitives": [
        {
          "attributes": {
            "NORMAL": 13,
            "POSITION": 12
          },
          "indices": 14,
          "material": 0,
          "mode": 4
        }
      ]
    }
  ],
  "nodes": [
    {
      "children": [
        1
      ],
      "matrix": [
        1.0,
        0.0,
        0.0,
        0.0,
        0.0,
        2.220446049250313e-16,
        -1.0,
        0.0,
        0.0,
        1.0,
        2.220446049250313e-16,
        0.0,
        0.0,
        0.0,
        0.0,
        1.0
      ],
      "name": "Sketchfab_model"
    },
    {
      "children": [
        2,
        3,
        4,
        5,
        6
      ],
      "name": "SubTool-0-13439535.OBJ"
    },
    {
      "mesh": 0,
      "name": "Object_2"
    },
    {
      "mesh": 1,
      "name": "Object_3"
    },
    {
      "mesh": 2,
      "name": "Object_4"
    },
    {
      "mesh": 3,
      "name": "Object_5"
    },
    {
      "mesh": 4,
      "name": "Object_6"
    }
  ],
  "scene": 0,
  "scenes": [
    {
      "name": "Sketchfab_Scene",
      "nodes": [
        0
      ]
    }
  ]
}
